<svg xmlns="http://www.w3.org/2000/svg" height="800" width="1200" viewBox="-5.123925 -1.9995375 44.40735 11.997225"><g fill="none"><path fill="#25F4EE" d="M2.75665 3.14987v-.31166a2.29997 2.29997 0 00-.327-.02811C1.36929 2.80786.43049 3.495.11207 4.50645c-.31841 1.01145.05744 2.11246.92787 2.71807C.38792 6.52672.20687 5.51089.57767 4.6308c.3708-.8801 1.2242-1.4601 2.17898-1.48093z"/><path fill="#25F4EE" d="M2.8154 6.68038c.59288-.00079 1.08021-.46787 1.10617-1.06017V.33466h.96565A1.81125 1.81125 0 014.85912 0H3.53837v5.28044c-.02196.59532-.51044 1.06687-1.10616 1.06784a1.12393 1.12393 0 01-.51093-.12773 1.10871 1.10871 0 00.89413.45983zm3.8754-4.55236v-.29379a1.80358 1.80358 0 01-.99887-.30145 1.83168 1.83168 0 00.99886.59524z"/><path fill="#FE2C55" d="M5.69193 1.53278A1.8189 1.8189 0 015.23976.3321h-.35254a1.82912 1.82912 0 00.80471 1.20068zM2.42966 4.13085c-.50877.00261-.95047.35116-1.0713.84538-.12084.49422.1102 1.00725.56037 1.24432-.24392-.33676-.27838-.78187-.0892-1.15215.1892-.3703.57006-.6032.98588-.60289a1.16489 1.16489 0 01.327.0511V3.17285a2.31983 2.31983 0 00-.327-.02554h-.05876v1.02185a1.13682 1.13682 0 00-.327-.03832z"/><path fill="#FE2C55" d="M6.6908 2.12802v1.02185a3.13458 3.13458 0 01-1.83168-.59523v2.68493c-.00282 1.33975-1.0897 2.42435-2.42946 2.42435a2.40383 2.40383 0 01-1.38973-.4394c.67857.72981 1.73462.97005 2.66212.6056.9275-.36446 1.5375-1.25936 1.5377-2.2559V2.89696a3.13965 3.13965 0 001.83424.58757V2.16889a1.87247 1.87247 0 01-.3832-.04087z"/><path fill="#000" d="M4.85912 5.23957V2.55464a3.13454 3.13454 0 001.83423.58757V2.12035a1.83168 1.83168 0 01-1.00142-.58757A1.82912 1.82912 0 014.88722.3321h-.96565v5.2881c-.01932.47179-.33532.87957-.78734 1.01605-.45203.13647-.9409-.02832-1.21806-.4106-.45016-.23706-.6812-.7501-.56037-1.24431.12084-.49422.56253-.84277 1.0713-.84538.1109.001.22107.0182.327.0511V3.1652c-.96015.01626-1.82.59829-2.19184 1.48365-.37185.88536-.18546 1.9068.47512 2.60377a2.40392 2.40392 0 001.39228.4113c1.33976 0 2.42664-1.0846 2.42946-2.42435z"/><g transform="translate(8.4684 1.86829) scale(.26698)"><path fill="#000" d="M10.46 21.72H5.23v-17H.01L0 .06h16.12l-1.48 4.66h-4.18zm42.53 0h-5.22v-17h-5.24L42.52.06h16.49l-1.48 4.66h-4.54zM17.1 6.95h5.17v14.77h-5.13zm13.91 7.58l-1.53 1.48v5.71h-5.16V0h5.16v10.09l5.12-5h6.16l-6.47 6.28 7.25 10.35h-5.69zm54.7 0l-1.48 1.48v5.71h-5.17L79.01 0h5.22v10.09l5.11-5h6.16l-6.47 6.28 7.2 10.35h-5.69z"/><circle r="2.6" cy="2.66" cx="19.69" fill="#000"/><path fill="#25F4EE" d="M58.35 12.88c.0016-4.61343 3.55065-8.4499 8.15-8.81h-.77c-4.6743.27265-8.32524 4.14275-8.32524 8.825 0 4.68225 3.65094 8.55235 8.32524 8.825h.77c-4.61087-.36098-8.1641-4.21504-8.15-8.84z"/><path fill="#FE2C55" d="M68.51 4.04h-.78c4.58446.37866 8.11233 4.20993 8.11233 8.81 0 4.60007-3.52787 8.43134-8.11233 8.81h.78c4.8822 0 8.84-3.9578 8.84-8.84 0-4.8822-3.9578-8.84-8.84-8.84z"/><path fill="#000" d="M67.11 17.18c-2.37482 0-4.3-1.92518-4.3-4.3 0-2.37482 1.92518-4.3 4.3-4.3 2.37482 0 4.3 1.92518 4.3 4.3-.0055 2.37254-1.92746 4.2945-4.3 4.3zm0-13.14c-4.8822 0-8.84 3.9578-8.84 8.84 0 4.8822 3.9578 8.84 8.84 8.84 4.8822 0 8.84-3.9578 8.84-8.84 0-2.34451-.93135-4.593-2.58918-6.25082C71.703 4.97135 69.45452 4.04 67.11 4.04z"/></g></g></svg>